# CobraMKIII-Elite

v -11.986769 2.073174 -4.987234
v -17.251589 -1.311511 -5.062273
v -16.102415 -0.853742 -0.759947
v -4.060348 -0.721068 10.267975
v -4.313409 -3.043016 -5.454565
v -10.872953 0.768450 -5.087325
v -4.981329 1.224540 -5.194541
v -0.228190 3.788731 -5.155003
v 10.581036 1.453170 -5.533759
v 11.612619 2.826367 -5.478311
v 17.074793 -0.215958 -5.776567
v 4.268186 -2.769128 -5.633138
v -11.920983 -0.069163 -5.111666
v -10.823614 -0.838303 -5.180649
v -1.243328 1.879950 -5.241559
v -4.899098 -1.453381 -5.350080
v -1.128204 -1.869139 -5.459314
v 0.902071 1.948422 -5.286202
v 1.017195 -1.800667 -5.503957
v 4.672966 1.532664 -5.395436
v 4.755197 -1.145257 -5.550975
v 11.678405 0.684030 -5.602742
v 10.630375 -0.153582 -5.627083
v -0.034127 3.296837 3.416524
v 4.521248 -0.447180 10.089401
v 16.078569 0.173339 -1.429597
v -10.811485 -0.869046 -4.644928
v -11.908854 -0.099906 -4.575945
v -10.860825 0.737706 -4.551605
v -1.231199 1.849207 -4.705838
v -4.969201 1.193797 -4.658820
v -4.886969 -1.484124 -4.814360
v 0.914200 1.917679 -4.750482
v 4.685094 1.501921 -4.859715
v 4.767326 -1.176000 -5.015255
v 1.029324 -1.831411 -4.968237
v -1.116075 -1.899882 -4.923594
v 11.690534 0.653287 -5.067022
v 10.593164 1.422427 -4.998039
v 10.642504 -0.184326 -5.091362

vn -0.5405 0.8395 0.0550
vn -0.1126 -0.9844 0.1348
vn -0.1268 -0.9810 0.1469
vn -0.0226 0.0573 -0.9981
vn -0.1433 0.9879 0.0599
vn -0.3230 0.8869 0.3303
vn -0.3055 0.8958 0.3228
vn -0.0173 0.8669 0.4982
vn 0.0346 -0.9888 0.1455
vn 0.1951 -0.9707 0.1402
vn 0.1807 -0.9751 0.1287
vn 0.4877 0.8724 0.0336
vn 0.2609 0.9139 0.3110
vn 0.2793 0.9061 0.3177
vn 0.0824 0.9951 0.0552
vn 0.5751 0.8174 0.0339
vn 0.6241 -0.7791 -0.0588
vn -0.9993 -0.0319 0.0208
vn 0.1717 -0.9833 -0.0603
vn 0.9993 0.0319 -0.0208
vn 0.0306 -0.9978 -0.0580
vn -0.1110 -0.9923 -0.0544
vn -0.1717 0.9833 0.0603
vn -0.0306 0.9978 0.0580
vn 0.1110 0.9923 0.0544
vn -0.5751 -0.8174 -0.0339
vn -0.6241 0.7791 0.0588

usemtl None
s off
f 1//1 2//1 3//1
f 3//2 2//2 4//2
f 4//3 2//3 5//3
f 6//4 1//4 5//4
f 7//4 1//4 8//4
f 9//4 10//4 11//4
f 5//4 11//4 12//4
f 2//4 1//4 13//4
f 2//4 13//4 14//4
f 2//4 14//4 5//4
f 13//4 1//4 6//4
f 7//4 8//4 15//4
f 16//4 1//4 7//4
f 17//4 5//4 16//4
f 5//4 1//4 16//4
f 15//4 8//4 18//4
f 5//4 17//4 19//4
f 5//4 19//4 11//4
f 20//4 10//4 21//4
f 8//4 10//4 20//4
f 8//4 20//4 18//4
f 21//4 11//4 19//4
f 21//4 10//4 9//4
f 22//4 9//4 11//4
f 21//4 9//4 23//4
f 21//4 23//4 11//4
f 23//4 22//4 11//4
f 6//4 5//4 14//4
f 8//5 1//5 24//5
f 24//6 1//6 4//6
f 1//7 3//7 4//7
f 24//8 4//8 25//8
f 4//9 5//9 12//9
f 25//9 4//9 12//9
f 25//10 12//10 11//10
f 26//11 25//11 11//11
f 11//12 10//12 26//12
f 10//13 25//13 26//13
f 10//14 24//14 25//14
f 10//15 8//15 24//15
f 27//16 14//16 28//16
f 28//16 14//16 13//16
f 6//17 29//17 28//17
f 13//17 6//17 28//17
f 29//18 6//18 27//18
f 27//18 6//18 14//18
f 15//19 30//19 31//19
f 7//19 15//19 31//19
f 7//20 31//20 32//20
f 16//20 7//20 32//20
f 18//21 33//21 30//21
f 15//21 18//21 30//21
f 20//22 34//22 33//22
f 18//22 20//22 33//22
f 34//18 20//18 35//18
f 35//18 20//18 21//18
f 35//23 21//23 36//23
f 36//23 21//23 19//23
f 36//24 19//24 37//24
f 37//24 19//24 17//24
f 37//25 17//25 32//25
f 32//25 17//25 16//25
f 22//26 38//26 39//26
f 9//26 22//26 39//26
f 9//20 39//20 40//20
f 23//20 9//20 40//20
f 38//27 22//27 40//27
f 40//27 22//27 23//27
f 29//4 27//4 28//4
f 30//4 33//4 31//4
f 31//4 33//4 34//4
f 31//4 34//4 35//4
f 31//4 35//4 36//4
f 31//4 36//4 37//4
f 31//4 37//4 32//4
f 39//4 38//4 40//4
