<svg xmlns="http://www.w3.org/2000/svg" width="0" height="0">

	<svg id="cockpit-scope" viewBox="0 0 860 620" size="keep">
		<style type="text/css">
			.st0{fill:none;opacity:.5;stroke:#393;stroke-width:2;stroke-miterlimit:10;}
		</style>
		<path id="left" class="st0" d="M182.8,171.8h-3.5c-17.7,35.8-27.6,76.1-27.6,118.7c0,42,9.7,81.8,26.9,117.2h4.2"/>
		<path id="right" class="st0" d="M656,171.8h4.5c17.7,35.8,27.6,76.1,27.6,118.7c0,42.4-9.8,82.4-27.3,118.1H656"/>
	</svg>

	<svg id="scanner-base" viewBox="0 0 860 620" size="keep">
		<style type="text/css">
			.st0{fill:#393; opacity:.35;}
		</style>
		<g id="base">
			<path id="r5" class="st0" d="M419.9,580.9c-28.5,0-55.3-3.5-75.4-13.4c-20.6-10.1-32-22.5-32-37.1s11.4-28.5,32-38.6
				c20.2-9.9,46.9-14.8,75.4-14.8c28.5,0,55.3,4.8,75.5,14.8c20.6,10.1,31.9,24,31.9,38.6s-11.4,27-32,37.1
				C475.2,577.3,448.4,580.9,419.9,580.9z M419.9,477.9c-57.1,0-103.5,20.2-103.5,51.2c0,27.5,46.4,47.9,103.5,47.9
				s103.5-20.4,103.5-47.9C523.5,498.1,477,477.9,419.9,477.9z"/>
			<path id="r2" class="st0" d="M419.9,571.3c-51.9,0-97-19.7-97-44.4c0-24.8,45.1-47.6,97-47.6s97,22.8,97,47.6
				C517,551.6,471.8,571.3,419.9,571.3z M419.9,479.6c-50.8,0-95.3,23.5-95.3,47.3c0,23.7,44.5,42.3,95.3,42.3s95.4-18.7,95.4-42.4
				C515.4,502.9,470.7,479.6,419.9,479.6z"/>
			<path id="r2_1_" class="st0" d="M419.9,551.8c-33.1,0-61.1-13.9-61.1-30.4c0-16.5,28-29.6,61.1-29.6s61.1,13.1,61.1,29.6
				C481,537.8,453.1,551.8,419.9,551.8z M419.9,492.2c-32.4,0-59.8,13.3-59.8,29.1c0,15.8,27.4,29.1,59.8,29.1s59.8-13.3,59.8-29.1
				C479.8,505.6,452.4,492.2,419.9,492.2z"/>
			<path id="r1_1_" class="st0" d="M419.9,536c-18.9,0-34.4-7.1-34.4-15.9c0-8.8,15.4-15.3,34.4-15.3c18.9,0,34.4,6.5,34.4,15.3
				C454.3,528.8,438.9,536,419.9,536z M419.9,505.5c-18.2,0-33.1,6.6-33.1,14.6s14.8,14.6,33.1,14.6c18.2,0,33.1-6.6,33.1-14.6
				S438.2,505.5,419.9,505.5z"/>
			<polygon id="center" class="st0" points="413.2,518.4 425.3,518.4 419.2,513.3 		"/>
			<polygon id="view" class="st0" points="419.2,518 374.5,481.9 375.5,481.7 419.2,516.3 463.2,481.4 464.3,481.7 		"/>
		</g>
	</svg>

	<svg id="scanner-heat-max" viewBox="0 0 860 620" size="keep">
		<style type="text/css">
			.st0{fill:#393;}
		</style>
		<g id="heat">
			<path id="heat-max" class="st0" d="M291.5,528.4l0.3-1.5h-11.1c1.2-6.8,6.6-14.3,13-19.8l10.7,0l1.1-0.9l-11,0c2.1-1.8,5.4-4.1,7.5-5.4h11.3
			l1.2-0.7h-13c-14.1,9-21.4,18.9-22.7,28.2H291.5z"/>
		</g>
	</svg>

	<svg id="scanner-heat-bg" viewBox="0 0 860 620" size="keep">
		<style type="text/css">
			.st0{fill:#393;}
		</style>
		<g id="heat">
			<path id="heat-val" class="st0" d="M345.4,579.5c-27.8-9.3-54.2-27.7-54.2-46.1c0-16.6,11.2-26,23.3-33.2h-4.3c-9.4,5-26,16.8-26,33.3
				c0,17,16.3,34.6,47.1,47.3l3.2,1.3h23.1l-7.1-2.6H345.4z"/>
		</g>
	</svg>

	<svg id="scanner-speed-bg" viewBox="0 0 860 620" size="keep">
		<style type="text/css">
			.st0{fill:#272; opacity:.35;}
		</style>
		<g id="speed-bg">
			<path class="st0" d="M537.8,513.4c0.8,0.9,1.5,1.8,2.1,2.8h8.7c-0.7-0.9-1.4-1.8-2.1-2.8H537.8z"/>
			<path class="st0" d="M542.2,519.7c0.5,0.9,1,1.9,1.4,2.8h8.8c-0.4-1-1-1.9-1.5-2.8H542.2z"/>
			<path class="st0" d="M540.4,516.7c0.5,0.8,1.1,1.6,1.5,2.4h8.7c-0.5-0.8-1-1.6-1.5-2.4H540.4z"/>
			<path class="st0" d="M534.6,509.9c0.9,0.9,1.8,1.9,2.7,2.9h8.7c-0.8-1-1.7-1.9-2.6-2.9H534.6z"/>
			<path class="st0" d="M544.8,526h9c-0.3-1-0.7-1.9-1.1-2.8h-8.8C544.2,524.1,544.6,525,544.8,526z"/>
			<path class="st0" d="M529.6,575.7c2-1.3,3.9-2.7,5.7-4h-25.1c-3.2,1.4-6.5,2.8-9.9,4H529.6z"/>
			<path class="st0" d="M519.4,567c-2.3,1.3-4.8,2.6-7.4,3.8h24.4c1.6-1.2,3.1-2.5,4.5-3.8H519.4z"/>
			<path class="st0" d="M527.3,561.9c-2,1.5-4.2,2.9-6.5,4.3h20.9c1.4-1.4,2.8-2.8,4-4.3H527.3z"/>
			<path class="st0" d="M532.2,558c-1.2,1-2.4,2-3.7,3h18c0.8-1,1.5-2,2.2-3H532.2z"/>
			<path class="st0" d="M536.6,553.6c-1.1,1.2-2.2,2.4-3.5,3.5h16.1c0.8-1.2,1.4-2.3,2.1-3.5H536.6z"/>
			<path class="st0" d="M540,549.4c-0.8,1.2-1.7,2.4-2.7,3.5h14.4c0.6-1.2,1.1-2.3,1.5-3.5H540z"/>
			<path class="st0" d="M545.7,532.1c0,0.3,0,0.6,0,0.9h9.7c-0.1-0.9-0.2-1.9-0.4-2.8h-9.3C545.7,530.8,545.7,531.5,545.7,532.1z"/>
			<path class="st0" d="M545,526.6c0.2,1,0.4,2,0.6,3h9.3c-0.2-1-0.5-2-0.8-3H545z"/>
			<path class="st0" d="M497.8,576.6c-4.5,1.5-9.2,2.9-14.2,4.2h-9.5l-8.8,2.6h50.7l5.2-2.6c2.5-1.4,4.8-2.8,7-4.2H497.8z"/>
			<path class="st0" d="M555.5,533.8h-9.8c-0.1,1.1-0.2,2.3-0.4,3.4h10.3c0-0.4,0-0.8,0-1.1C555.6,535.2,555.5,534.5,555.5,533.8z"/>
			<path class="st0" d="M523.8,501.3c1.1,0.7,2.1,1.4,3.2,2.2h9c-1-0.7-2-1.5-3-2.2h3.4l-1.8-1.3h-17.3l2.3,1.3H523.8z"/>
			<path class="st0" d="M530.8,506.4h8.8c-0.9-0.8-1.9-1.6-2.8-2.3h-9C528.8,504.8,529.8,505.6,530.8,506.4z"/>
			<path class="st0" d="M531.5,507c0.9,0.8,1.7,1.5,2.6,2.3h8.8c-0.8-0.8-1.6-1.6-2.5-2.3H531.5z"/>
			<path class="st0" d="M545.1,537.8c-0.2,1-0.5,2-0.8,2.9h11c0.1-1,0.2-1.9,0.2-2.9H545.1z"/>
			<path class="st0" d="M542.5,545.1c-0.6,1.2-1.3,2.4-2.1,3.5h13c0.4-1.2,0.8-2.3,1-3.5H542.5z"/>
			<path class="st0" d="M544.1,541.5c-0.4,1-0.8,2-1.2,2.9h11.8c0.2-1,0.4-1.9,0.5-2.9H544.1z"/>
		</g>
	</svg>

	<svg id="scanner-speed-rec" viewBox="0 0 860 620" size="keep">
		<style type="text/css">
			.st0{fill:#fff;}
		</style>
		<g id="speed-rec">
			<path class="st0" d="M538.6,519.7c0.5,0.9,0.9,1.9,1.2,2.8h2.4c-0.4-1-0.8-1.9-1.3-2.8H538.6z"/>
			<path class="st0" d="M536.9,516.7c0.5,0.8,1,1.6,1.4,2.4h2.3c-0.5-0.8-0.9-1.6-1.5-2.4H536.9z"/>
			<path class="st0" d="M534.4,513.4c0.7,0.9,1.4,1.8,2.1,2.8h2.2c-0.7-0.9-1.4-1.9-2.1-2.8H534.4z"/>
			<path class="st0" d="M530.4,553.6c-1.4,1.2-2.9,2.4-4.5,3.5h5c1.3-1.1,2.6-2.3,3.8-3.5H530.4z"/>
			<path class="st0" d="M533.4,509.9h-2.3c1,0.9,1.9,1.9,2.8,2.9h2.2C535.3,511.8,534.4,510.8,533.4,509.9z"/>
			<path class="st0" d="M509.4,567c-2.6,1.3-5.4,2.6-8.3,3.8h7.6c2.6-1.2,5.1-2.5,7.6-3.8H509.4z"/>
			<path class="st0" d="M541.2,537.8c-0.2,1-0.5,2-0.9,2.9h2.6c0.2-0.5,0.3-1,0.4-1.6c0.1-0.5,0.2-0.9,0.3-1.4H541.2z"/>
			<path class="st0" d="M524.7,558c-1.4,1-3,2-4.6,3h5.8c1.4-1,2.7-2,4-3H524.7z"/>
			<path class="st0" d="M518.8,561.9c-2.4,1.5-5,2.9-7.8,4.3h6.8c2.4-1.4,4.7-2.8,6.9-4.3H518.8z"/>
			<path class="st0" d="M496.8,575.7c3.3-1.2,6.7-2.5,10-4H499c-3.4,1.4-6.9,2.8-10.6,4H496.8z"/>
			<path class="st0" d="M540.9,526h2.4c-0.2-1-0.5-1.9-0.9-2.8h-2.4C540.4,524,540.7,525,540.9,526z"/>
			<path class="st0" d="M541.6,533.1h2.5c0-1,0-1.9-0.1-2.8h-2.5C541.6,531.1,541.7,532.1,541.6,533.1z"/>
			<path class="st0" d="M527.8,507c0.9,0.7,1.9,1.5,2.8,2.3h2.3c-0.9-0.8-1.7-1.6-2.6-2.3H527.8z"/>
			<path class="st0" d="M525.5,503.5c-0.9-0.6-1.7-1.2-2.6-1.7h-2.7c0.9,0.5,1.8,1.1,2.7,1.7H525.5z"/>
			<path class="st0" d="M541.6,533.8c0,1-0.1,2-0.3,3.1c0,0.1,0,0.2-0.1,0.3h2.4c0.2-1.1,0.3-2.3,0.4-3.4H541.6z"/>
			<path class="st0" d="M486,576.6c-3.2,1.1-6.5,2.1-9.9,3.1l7.8,0.1c3.2-0.8,6.8-1.9,10.5-3.2H486z"/>
			<path class="st0" d="M541,526.6c0.2,1,0.4,1.9,0.5,3h2.5c-0.1-1-0.3-2-0.5-3H541z"/>
			<path class="st0" d="M534.7,549.4c-1.1,1.2-2.3,2.4-3.6,3.5h4.2c1.1-1.2,2.1-2.3,3-3.5H534.7z"/>
			<path class="st0" d="M540.1,541.5c-0.4,1-0.9,2-1.5,2.9h2.9c0.5-1,0.9-1.9,1.2-2.9H540.1z"/>
			<path class="st0" d="M527,506.4h2.4c-1-0.8-2.1-1.6-3.1-2.3h-2.6C524.9,504.8,525.9,505.6,527,506.4z"/>
			<path class="st0" d="M538.1,545.1c-0.8,1.2-1.7,2.4-2.7,3.5h3.5c0.8-1.2,1.5-2.3,2.2-3.5H538.1z"/>
		</g>
	</svg>

	<svg id="scanner-speed-val" viewBox="0 0 860 620" size="keep">
		<style type="text/css">
			.st0{fill:#69d; opacity:.35;}
		</style>
		<g id="speed-val">
			<path class="st0" d="M554,519.7c0.5,0.9,1.1,1.9,1.5,2.8h3c-0.5-1-1-1.9-1.6-2.8H554z"/>
			<path class="st0" d="M554.9,553.6c-0.6,1.2-1.2,2.4-1.9,3.5h4.1c0.6-1.2,1.1-2.3,1.6-3.5H554.9z"/>
			<path class="st0" d="M557.1,526h3.1c-0.4-1-0.8-1.9-1.3-2.8h-3C556.3,524.1,556.7,525,557.1,526z"/>
			<path class="st0" d="M552.1,516.7c0.5,0.8,1.1,1.6,1.5,2.4h2.9c-0.5-0.8-1.1-1.6-1.6-2.4H552.1z"/>
			<path class="st0" d="M549.7,513.4c0.7,0.9,1.4,1.8,2.1,2.8h2.8c-0.7-0.9-1.4-1.9-2.2-2.8H549.7z"/>
			<path class="st0" d="M550,561.9c-1.1,1.5-2.3,2.9-3.5,4.3h5c1-1.4,2-2.8,3-4.3H550z"/>
			<path class="st0" d="M545.7,567c-1.2,1.3-2.6,2.6-4,3.8h5.8c1.1-1.2,2.2-2.5,3.3-3.8H545.7z"/>
			<path class="st0" d="M540.8,571.7c-1.7,1.4-3.5,2.8-5.4,4h7c1.4-1.2,2.8-2.5,4.3-4H540.8z"/>
			<path class="st0" d="M546.7,509.9c0.9,0.9,1.7,1.9,2.5,2.9h2.7c-0.9-1-1.7-2-2.6-2.9H546.7z"/>
			<path class="st0" d="M552.6,558c-0.6,1-1.3,2-2,3h4.4c0.6-1,1.2-2,1.7-3H552.6z"/>
			<path class="st0" d="M557.3,526.6c0.3,1,0.6,2,0.9,3h3.1c-0.3-1-0.6-2-0.9-3H557.3z"/>
			<path class="st0" d="M558.8,533.1h3.1c-0.1-1-0.3-1.9-0.5-2.8h-3.1C558.6,531.2,558.7,532.1,558.8,533.1z"/>
			<path class="st0" d="M562.1,533.8h-3.1c0.1,0.8,0.1,1.6,0.1,2.4c0,0.3,0,0.6,0,1h3.3c0,0,0,0,0,0C562.3,536,562.2,534.8,562.1,533.8z"/>
			<path class="st0" d="M559,537.8c0,1-0.1,2-0.2,2.9h3.4c0.1-1,0.1-1.9,0.2-2.9H559z"/>
			<path class="st0" d="M541.4,576.6h-7.3c-2.1,1.3-4.3,2.6-6.6,3.7h13.1c1.2-0.9,3.3-2.7,4.2-3.6L541.4,576.6 C541.4,576.6,541.4,576.6,541.4,576.6z"/>
			<path class="st0" d="M542.3,503.5c-0.8-0.7-1.7-1.4-2.5-2h-2.7c0.9,0.6,1.8,1.3,2.7,2H542.3z"/>
			<path class="st0" d="M556.7,549.4c-0.4,1.2-0.9,2.4-1.4,3.5h3.8c0.5-1.2,0.9-2.3,1.2-3.5H556.7z"/>
			<path class="st0" d="M558.6,541.5c-0.1,1-0.3,2-0.5,2.9h3.5c0.2-1,0.3-1.9,0.4-2.9H558.6z"/>
			<path class="st0" d="M543.2,506.4h2.4c-0.9-0.8-1.8-1.6-2.6-2.3h-2.5C541.4,504.8,542.3,505.6,543.2,506.4z"/>
			<path class="st0" d="M546.2,507h-2.5c0.8,0.7,1.6,1.5,2.3,2.3h2.5C547.8,508.5,547,507.7,546.2,507z"/>
			<path class="st0" d="M558,545.1c-0.3,1.2-0.6,2.4-1,3.5h3.6c0.3-1.2,0.6-2.3,0.9-3.5H558z"/>
		</g>
	</svg>

	<svg id="hud-compass" viewBox="0 0 860 620" size="keep">
		<style type="text/css">
			.st1{fill:none;stroke:#272;stroke-width:0.5;stroke-miterlimit:10;}
			.st2{fill:none;stroke:#262;stroke-width:0.5;stroke-miterlimit:10;}
			.st3{fill:none;stroke:#393;stroke-width:0.5;stroke-miterlimit:10;}
		</style>
		<g id="compass">
			<g id="outer">
				<path class="st2" d="M266.1,476c1.9-5.3,6.1-9.6,11.4-11.4"/>
				<path class="st2" d="M277.5,499.8c-5.3-1.9-9.6-6.1-11.4-11.4"/>
				<path class="st2" d="M301.2,488.3c-1.9,5.3-6.1,9.6-11.4,11.4"/>
				<path class="st2" d="M289.8,464.6c5.3,1.9,9.6,6.1,11.4,11.4"/>
			</g>
			<g id="crosshair">
				<line class="st3" x1="283.7" y1="478.8" x2="283.7" y2="474.8"/>
				<line class="st3" x1="283.7" y1="489" x2="283.7" y2="485.1"/>
				<line class="st3" x1="286.8" y1="481.9" x2="290.8" y2="481.9"/>
				<line class="st3" x1="276.5" y1="481.9" x2="280.5" y2="481.9"/>
			</g>
			<circle class="st1" id="ring" class="st4" cx="283.7" cy="482.2" r="15.4"/>
		</g>
	</svg>
	
	<svg id="holo-base-1" viewBox="0 0 860 620" size="keep">
		<style type="text/css">
			#base-1{fill:#393;opacity:.35;}
		</style>
		<path id="base-1" d="M198,595.3c-37,0-67.2-13.3-67.9-29.9c0,0.2,0,0.4,0,0.7c0,16.9,30.4,30.6,68,30.6s68-13.7,68-30.6
		c0-0.2,0-0.4,0-0.7C265.2,582,235.1,595.3,198,595.3z"/>
	</svg>
	
	<svg id="holo-base-2" viewBox="0 0 860 620" size="keep">
		<style type="text/css">
			#base-2{fill:#393;opacity:.35;}
		</style>
		<path id="base-2" d="M198,585.9c-37,0-67.2-13.3-67.9-29.9c0,0.2,0,0.4,0,0.7c0,16.9,30.4,30.6,68,30.6s68-13.7,68-30.6
		c0-0.2,0-0.4,0-0.7C265.2,572.6,235.1,585.9,198,585.9z"/>
	</svg>
	
	<svg id="holo-ring-1" viewBox="0 0 860 620" size="keep">
		<style type="text/css">
			#ring-1{fill:#393;opacity:.35;}
		</style>
		<path id="ring-1" d="M198,507.8c-27.5,0-49.9,9.4-49.9,21s22.3,21,49.9,21s49.9-9.4,49.9-21S225.5,507.8,198,507.8z M198,548.1
			c-26.8,0-48.5-9-48.5-20.1S171.2,508,198,508s48.5,9,48.5,20.1S224.8,548.1,198,548.1z"/>
	</svg>
	
	<svg id="holo-ring-2" viewBox="0 0 860 620" size="keep">
		<style type="text/css">
			#ring-2{fill:#272;opacity:.35;}
		</style>
		<path id="ring-2" d="M198,512.1c-30.1,0-54.5,10.3-54.5,22.9c0,12.7,24.4,22.9,54.5,22.9s54.5-10.3,54.5-22.9
			C252.5,522.3,228.1,512.1,198,512.1z M198,556.1c-29.3,0-53-9.8-53-21.9c0-12.1,23.7-21.9,53-21.9s53,9.8,53,21.9
			C251,546.3,227.3,556.1,198,556.1z"/>
	</svg>
	
	<svg id="holo-gage-left" viewBox="0 0 860 620" size="keep">
		<style type="text/css">
			#gage-bg{fill:#272;opacity:.35;}
		</style>
		<g id="gage-bg">
			<path d="M129.3,539.8l7.1,0.4c0.3-1.3,0.7-2.6,1.2-3.8l-6.4-0.9C130.3,536.9,129.7,538.3,129.3,539.8z"/>
			<path d="M139.9,551.5c-1.4-1.5-2.4-3-3.1-4.6l-7.7,0.3c0.4,1.9,1,3.8,1.9,5.6L139.9,551.5z"/>
			<path d="M155.5,561.1c-2.5-1-4.8-2-6.8-3.1l-11.2,2.9c2,1.7,4.2,3.4,6.7,4.9L155.5,561.1z"/>
			<path d="M136,542.6c0-0.3,0-0.6,0.1-0.9l-7.2-0.4c-0.1,0.5-0.1,1-0.1,1.5c0,0.9,0,1.8,0.1,2.7l7.4-0.2
				C136.1,544.5,136,543.6,136,542.6z"/>
			<path d="M164.6,564.1c-2.4-0.7-4.7-1.4-6.9-2.2l-11.7,4.9c2.5,1.4,5.2,2.6,8.1,3.8L164.6,564.1z"/>
			<path d="M141.4,552.9l-9.5,1.3c1.1,1.9,2.5,3.6,4.2,5.3l10.6-2.8C144.7,555.6,142.9,554.3,141.4,552.9z"/>
			<path d="M174.1,566.3c-2.5-0.5-5-1-7.3-1.6l-10.8,6.6c3,1.1,6.2,2.1,9.6,3L174.1,566.3z"/>
			<path d="M185.2,567.9c-3.1-0.3-6.2-0.8-9.1-1.3l-8.6,8.1c4.1,1,8.3,1.8,12.8,2.4L185.2,567.9z"/>
			<path d="M196.1,568.8c-3.1-0.1-6.2-0.4-9.2-0.7l-4.9,9.3c4.3,0.6,8.8,1,13.4,1.2L196.1,568.8z"/>
			<path d="M141.9,532.6l-7.4-1.5c-0.9,0.9-1.7,1.9-2.4,2.8l6.2,0.9c0.3-0.4,0.6-0.9,0.9-1.3l2.1,0.2L141.9,532.6z"/>
			<path d="M207.6,565.4l-2.8,0.1l0.7,3.4c-2.6,0-5.1,0-7.9-0.1l-0.7,9.8c0.2,0,0.4,0,0.5,0c5.3,0.2,10.4,0.1,15.4-0.2L207.6,565.4z"
				/>
		</g>
	</svg>
	
	<svg id="holo-gage-right" viewBox="0 0 860 620" size="keep">
		<style type="text/css">
			#gage-bg{fill:#272;opacity:.35;}
		</style>
		<g id="gage-bg">
			<path d="M714.2,539.8l-7.1,0.4c-0.3-1.3-0.7-2.6-1.2-3.8l6.4-0.9C713.2,536.9,713.8,538.3,714.2,539.8z"/>
			<path d="M703.6,551.5c1.4-1.5,2.4-3,3.1-4.6l7.7,0.3c-0.4,1.9-1,3.8-1.9,5.6L703.6,551.5z"/>
			<path d="M687.9,561.1c2.5-1,4.8-2,6.8-3.1l11.2,2.9c-2,1.7-4.2,3.4-6.7,4.9L687.9,561.1z"/>
			<path d="M707.5,542.6c0-0.3,0-0.6-0.1-0.9l7.2-0.4c0.1,0.5,0.1,1,0.1,1.5c0,0.9,0,1.8-0.1,2.7l-7.4-0.2
				C707.4,544.5,707.5,543.6,707.5,542.6z"/>
			<path d="M678.9,564.1c2.4-0.7,4.7-1.4,6.9-2.2l11.7,4.9c-2.5,1.4-5.2,2.6-8.1,3.8L678.9,564.1z"/>
			<path d="M702.1,552.9l9.5,1.3c-1.1,1.9-2.5,3.6-4.2,5.3l-10.6-2.8C698.8,555.6,700.6,554.3,702.1,552.9z"/>
			<path d="M669.4,566.3c2.5-0.5,5-1,7.3-1.6l10.8,6.6c-3,1.1-6.2,2.1-9.6,3L669.4,566.3z"/>
			<path d="M658.3,567.9c3.1-0.3,6.2-0.8,9.1-1.3l8.6,8.1c-4.1,1-8.3,1.8-12.8,2.4L658.3,567.9z"/>
			<path d="M647.4,568.8c3.1-0.1,6.2-0.4,9.2-0.7l4.9,9.3c-4.3,0.6-8.8,1-13.4,1.2L647.4,568.8z"/>
			<path d="M701.6,532.6l7.4-1.5c0.9,0.9,1.7,1.9,2.4,2.8l-6.2,0.9c-0.3-0.4-0.6-0.9-0.9-1.3l-2.1,0.2L701.6,532.6z"/>
			<path d="M635.9,565.4l2.8,0.1l-0.7,3.4c2.6,0,5.1,0,7.9-0.1l0.7,9.8c-0.2,0-0.4,0-0.5,0c-5.3,0.2-10.4,0.1-15.4-0.2L635.9,565.4z"
				/>
		</g>
	</svg>
</svg>